<?xml version="1.0" encoding="utf-8"?>
<!-- Generator: Adobe Illustrator 14.0.0, SVG Export Plug-In . SVG Version: 6.00 Build 43363)  -->
<!DOCTYPE svg PUBLIC "-//W3C//DTD SVG 1.1//EN" "http://www.w3.org/Graphics/SVG/1.1/DTD/svg11.dtd">
<svg
   width="150px"
   height="58px"
   viewBox="0 0 600 255"
   version="1.1"
   id="svg15"
   sodipodi:docname="dogechia_logo.svg"
   inkscape:version="1.1 (c4e8f9e, 2021-05-24)"
   xmlns:inkscape="http://www.inkscape.org/namespaces/inkscape"
   xmlns:sodipodi="http://sodipodi.sourceforge.net/DTD/sodipodi-0.dtd"
   xmlns="http://www.w3.org/2000/svg"
   xmlns:svg="http://www.w3.org/2000/svg"
   xmlns:rdf="http://www.w3.org/1999/02/22-rdf-syntax-ns#"
   xmlns:cc="http://creativecommons.org/ns#"
   xmlns:dc="http://purl.org/dc/elements/1.1/">
<g>
	<path fill="#40AB5D" d="M4.94,165.649l8.37-150.445h75.651c17.741,0,32.89,7.548,45.444,22.642
		c12.555,15.095,18.833,33.337,18.833,54.727c0,21.391-6.277,39.633-18.833,54.727c-12.555,15.095-27.704,22.642-45.444,22.642
		L4.94,165.649z M84.24,128.199c5.65,0,10.479-3.451,14.487-10.355c4.005-6.902,6.009-15.254,6.009-25.056
		c0-9.801-2.003-18.171-6.009-25.11C94.719,60.74,89.89,57.269,84.24,57.269l-21.891-0.322l-4.185,71.145L84.24,128.199z"/>
	<path fill="#40AB5D" d="M281.716,36.559c13.985,15.309,20.979,33.838,20.979,55.584c0,21.676-6.993,40.187-20.979,55.531
		c-13.987,15.345-30.851,23.018-50.595,23.018c-19.816,0-36.717-7.673-50.702-23.018c-13.987-15.345-20.979-33.855-20.979-55.531
		c0-21.746,6.992-40.275,20.979-55.584c13.985-15.308,30.886-22.964,50.702-22.964C250.866,13.595,267.729,21.25,281.716,36.559z
		 M248.076,118.219c3.434-6.938,5.151-14.986,5.151-24.145c0-1.717-0.072-3.504-0.215-5.365
		c-0.716-11.303-3.685-20.817-8.906-28.544c-4.936-7.225-10.446-10.838-16.525-10.838h-1.18c-6.653,0.43-12.019,4.794-16.096,13.092
		c-3.506,7.012-5.258,15.06-5.258,24.144c0,1.789,0.07,3.578,0.214,5.365c0.787,11.375,3.791,20.89,9.014,28.544
		c4.864,7.297,10.372,10.945,16.525,10.945h1.073C238.525,130.917,243.926,126.518,248.076,118.219z"/>
	<path fill="#40AB5D" d="M398.499,62.956c-4.937-8.083-10.839-12.125-17.706-12.125s-12.734,4.042-17.599,12.125
		c-4.865,8.085-7.297,17.813-7.297,29.188c0,11.447,2.432,21.212,7.297,29.295c4.864,8.085,10.731,12.126,17.599,12.126
		s12.77-4.041,17.706-12.126c1.931-3.219,3.469-6.724,4.613-10.516l-23.07-0.107l-4.722-23.93l80.694-3.971
		c0.357,3.363,0.537,6.798,0.537,10.302c0,21.891-7.173,40.58-21.516,56.068c-14.344,15.488-31.674,23.231-51.989,23.231
		c-20.318,0-37.648-7.743-51.99-23.231c-14.344-15.488-21.516-34.178-21.516-56.068s7.171-40.579,21.516-56.068
		c14.342-15.487,31.672-23.232,51.99-23.232c20.315,0,37.664,7.726,52.043,23.178c8.37,9.086,14.308,19.315,17.813,30.69
		l-49.254,7.619C402.504,70.897,400.787,66.749,398.499,62.956z"/>
	<path fill="#40AB5D" d="M596.137,15.097l-4.186,45.713h-78.978v20.817h58.268v29.08h-58.268v16.633h78.978v37.343l-128.768,4.185
		l-4.186-141.323L596.137,15.097z"/>
</g>
<g>
	<g>
		<path fill="#40AB5D" d="M227.296,227.26l21.235,2.395c-1.429,5.545-4.264,10.481-8.507,14.808
			c-6.427,6.554-14.199,9.83-23.314,9.83c-9.116,0-16.878-3.276-23.283-9.83c-6.407-6.553-9.609-14.45-9.609-23.692
			c0-9.241,3.203-17.129,9.609-23.661c6.405-6.532,14.167-9.799,23.283-9.799c9.115,0,16.887,3.276,23.314,9.83
			c4.999,5.083,8.044,11.007,9.137,17.77l-21.992,1.197c-0.504-2.058-1.303-3.948-2.395-5.671c-2.016-3.192-4.474-4.789-7.373-4.789
			c-2.857,0-5.293,1.597-7.31,4.789c-2.016,3.192-3.024,7.036-3.024,11.531c0,4.537,1.008,8.412,3.024,11.626
			c2.017,3.213,4.453,4.82,7.31,4.82c2.899,0,5.356-1.617,7.373-4.853C225.994,231.713,226.833,229.614,227.296,227.26z"/>
		<path fill="#40AB5D" d="M277.328,252.969h-23.63c-0.042-43.311-0.189-74.145-0.441-92.503c7.939-1.932,15.417-2.604,22.433-2.017
			l0.882,34.595c3.108-3.655,8.097-5.503,14.965-5.545c6.869-0.042,13.264,3.108,19.188,9.451
			c5.923,6.344,8.948,14.031,9.074,23.063v32.955l-22.937-0.062c-0.042-0.252-0.063-11.006-0.063-32.263
			c-0.463-3.822-1.954-7.016-4.474-9.578c-2.353-2.436-4.6-3.592-6.742-3.466s-4.181,1.597-6.112,4.411
			c-1.555,2.353-2.311,5.083-2.269,8.191C277.244,220.624,277.286,231.545,277.328,252.969z"/>
		<path fill="#40AB5D" d="M348.658,159.994c2.604,2.5,3.906,5.514,3.906,9.043c0,3.528-1.303,6.532-3.906,9.011
			c-2.605,2.479-5.756,3.718-9.451,3.718c-3.656,0-6.785-1.239-9.389-3.718c-2.605-2.479-3.908-5.482-3.908-9.011
			c0-3.529,1.303-6.543,3.908-9.043c2.604-2.498,5.732-3.749,9.389-3.749C342.902,156.245,346.053,157.496,348.658,159.994z
			 M351.432,189.641v62.383l-25.143,0.441v-61.941L351.432,189.641z"/>
		<path fill="#40AB5D" d="M405.182,248.306c-4.705,3.487-10.061,5.23-16.068,5.23c-8.191,0-15.186-3.203-20.982-9.609
			c-5.799-6.406-8.697-14.125-8.697-23.157c0-9.074,2.898-16.793,8.697-23.157c5.797-6.364,12.791-9.547,20.982-9.547
			c6.008,0,11.363,1.724,16.068,5.167v-5.041l23.693,1.009c-0.631,34.825-0.631,55.451,0,61.878
			c-7.898,1.849-15.355,2.437-22.369,1.765L405.182,248.306z M402.535,230.348c1.596-2.395,2.395-5.167,2.395-8.318
			c0-0.588-0.043-1.197-0.127-1.827c-0.336-3.864-1.723-7.12-4.158-9.767c-2.354-2.479-4.957-3.718-7.812-3.718h-0.506
			c-3.15,0.126-5.691,1.617-7.623,4.474c-1.639,2.395-2.459,5.146-2.459,8.255c0,0.63,0.021,1.26,0.064,1.891
			c0.418,3.865,1.848,7.12,4.285,9.767c2.309,2.479,4.914,3.718,7.812,3.718h0.441C397.998,234.655,400.561,233.163,402.535,230.348
			z"/>
	</g>
</g>
</svg>
